<svg width="340" height="238" xmlns="http://www.w3.org/2000/svg"><rect width="340" height="238" rx="6" fill="#1a1b27" stroke="#29344a" stroke-width="1"/><text x="20" y="35" fill="#c0caf5" font-size="14" font-weight="600" font-family="ui-monospace,SFMono-Regular,monospace">Most Used Languages</text><circle cx="26" cy="50" r="4.5" fill="#b07219"/><text x="36" y="54" fill="#a9b1d6" font-size="11" font-family="ui-monospace,SFMono-Regular,monospace">Java</text><rect x="110" y="45" width="77" height="8" fill="#b07219" rx="3" opacity="0.85"/><text x="320" y="54" fill="#565f89" font-size="10" font-family="ui-monospace,SFMono-Regular,monospace" text-anchor="end">48.0%</text><circle cx="26" cy="78" r="4.5" fill="#e34c26"/><text x="36" y="82" fill="#a9b1d6" font-size="11" font-family="ui-monospace,SFMono-Regular,monospace">HTML</text><rect x="110" y="73" width="41" height="8" fill="#e34c26" rx="3" opacity="0.85"/><text x="320" y="82" fill="#565f89" font-size="10" font-family="ui-monospace,SFMono-Regular,monospace" text-anchor="end">25.8%</text><circle cx="26" cy="106" r="4.5" fill="#563d7c"/><text x="36" y="110" fill="#a9b1d6" font-size="11" font-family="ui-monospace,SFMono-Regular,monospace">CSS</text><rect x="110" y="101" width="24" height="8" fill="#563d7c" rx="3" opacity="0.85"/><text x="320" y="110" fill="#565f89" font-size="10" font-family="ui-monospace,SFMono-Regular,monospace" text-anchor="end">15.1%</text><circle cx="26" cy="134" r="4.5" fill="#f1e05a"/><text x="36" y="138" fill="#a9b1d6" font-size="11" font-family="ui-monospace,SFMono-Regular,monospace">JavaScript</text><rect x="110" y="129" width="11" height="8" fill="#f1e05a" rx="3" opacity="0.85"/><text x="320" y="138" fill="#565f89" font-size="10" font-family="ui-monospace,SFMono-Regular,monospace" text-anchor="end">6.9%</text><circle cx="26" cy="162" r="4.5" fill="#3572A5"/><text x="36" y="166" fill="#a9b1d6" font-size="11" font-family="ui-monospace,SFMono-Regular,monospace">Python</text><rect x="110" y="157" width="6" height="8" fill="#3572A5" rx="3" opacity="0.85"/><text x="320" y="166" fill="#565f89" font-size="10" font-family="ui-monospace,SFMono-Regular,monospace" text-anchor="end">4.0%</text><circle cx="26" cy="190" r="4.5" fill="#384d54"/><text x="36" y="194" fill="#a9b1d6" font-size="11" font-family="ui-monospace,SFMono-Regular,monospace">Dockerfile</text><rect x="110" y="185" width="2" height="8" fill="#384d54" rx="3" opacity="0.85"/><text x="320" y="194" fill="#565f89" font-size="10" font-family="ui-monospace,SFMono-Regular,monospace" text-anchor="end">0.2%</text></svg>